HIERARCHY
ROOT hip
{
  OFFSET 0 0 0
  CHANNELS 6 Xposition Yposition Zposition Zrotation Yrotation Xrotation
  JOINT abdomen
  {
    OFFSET 0 20.6881 -0.73152
    CHANNELS 3 Zrotation Xrotation Yrotation
    JOINT chest
    {
      OFFSET 0 11.7043 -0.48768
      CHANNELS 3 Zrotation Xrotation Yrotation
      JOINT neck
      {
        OFFSET 0 22.1894 -2.19456
        CHANNELS 3 Zrotation Xrotation Yrotation
        JOINT head
        {
          OFFSET -0.24384 7.07133 1.2192
          CHANNELS 3 Zrotation Xrotation Yrotation
          JOINT leftEye
          {
            OFFSET 4.14528 8.04674 8.04672
            CHANNELS 3 Zrotation Xrotation Yrotation
            End Site
            {
              OFFSET 1 0 0
            }
          }
          JOINT rightEye
          {
            OFFSET -3.6576 8.04674 8.04672
            CHANNELS 3 Zrotation Xrotation Yrotation
            End Site
            {
              OFFSET 1 0 0
            }
          }
        }
      }
      JOINT rCollar
      {
        OFFSET -2.68224 19.2634 -4.8768
        CHANNELS 3 Zrotation Xrotation Yrotation
        JOINT rShldr
        {
          OFFSET -8.77824 -1.95073 1.46304
          CHANNELS 3 Zrotation Xrotation Yrotation
          JOINT rForeArm
          {
            OFFSET -28.1742 -1.7115 0.48768
            CHANNELS 3 Zrotation Xrotation Yrotation
            JOINT rHand
            {
              OFFSET -22.5879 0.773209 7.07136
              CHANNELS 3 Zrotation Xrotation Yrotation
              JOINT rThumb1
              {
                OFFSET -1.2192 -0.487915 3.41376
                CHANNELS 3 Zrotation Xrotation Yrotation
                JOINT rThumb2
                {
                  OFFSET -3.37035 -0.52449 3.41376
                  CHANNELS 3 Zrotation Xrotation Yrotation
                  End Site
                  {
                    OFFSET -1.78271 -1.18214 1.43049
                  }
                }
              }
              JOINT rIndex1
              {
                OFFSET -7.75947 0.938293 5.60832
                CHANNELS 3 Zrotation Xrotation Yrotation
                JOINT rIndex2
                {
                  OFFSET -2.54057 -0.884171 1.56538
                  CHANNELS 3 Zrotation Xrotation Yrotation
                  End Site
                  {
                    OFFSET -1.62519 -0.234802 1.16502
                  }
                }
              }
              JOINT rMid1
              {
                OFFSET -8.24714 1.18213 3.41376
                CHANNELS 3 Zrotation Xrotation Yrotation
                JOINT rMid2
                {
                  OFFSET -3.10165 -0.590103 1.0647
                  CHANNELS 3 Zrotation Xrotation Yrotation
                  End Site
                  {
                    OFFSET -2.48547 -0.328903 0.83742
                  }
                }
              }
              JOINT rRing1
              {
                OFFSET -8.82822 0.546677 1.51678
                CHANNELS 3 Zrotation Xrotation Yrotation
                JOINT rRing2
                {
                  OFFSET -2.60934 -0.819778 -0.0198488
                  CHANNELS 3 Zrotation Xrotation Yrotation
                  End Site
                  {
                    OFFSET -2.33842 -0.294052 0.168128
                  }
                }
              }
              JOINT rPinky1
              {
                OFFSET -8.27202 -0.0477905 -0.4584
                CHANNELS 3 Zrotation Xrotation Yrotation
                JOINT rPinky2
                {
                  OFFSET -1.82734 -0.647385 -0.700984
                  CHANNELS 3 Zrotation Xrotation Yrotation
                  End Site
                  {
                    OFFSET -1.69225 -0.51767 -0.607171
                  }
                }
              }
            }
          }
        }
      }
      JOINT lCollar
      {
        OFFSET 2.68224 19.2634 -4.8768
        CHANNELS 3 Zrotation Xrotation Yrotation
        JOINT lShldr
        {
          OFFSET 8.77824 -1.95073 1.46304
          CHANNELS 3 Zrotation Xrotation Yrotation
          JOINT lForeArm
          {
            OFFSET 28.1742 -1.7115 0.48768
            CHANNELS 3 Zrotation Xrotation Yrotation
            JOINT lHand
            {
              OFFSET 22.5879 0.773209 7.07136
              CHANNELS 3 Zrotation Xrotation Yrotation
              JOINT lThumb1
              {
                OFFSET 1.2192 -0.487915 3.41376
                CHANNELS 3 Zrotation Xrotation Yrotation
                JOINT lThumb2
                {
                  OFFSET 3.37035 -0.52449 3.41376
                  CHANNELS 3 Zrotation Xrotation Yrotation
                  End Site
                  {
                    OFFSET 1.78271 -1.18214 1.43049
                  }
                }
              }
              JOINT lIndex1
              {
                OFFSET 7.75947 0.938293 5.60832
                CHANNELS 3 Zrotation Xrotation Yrotation
                JOINT lIndex2
                {
                  OFFSET 2.54057 -0.884171 1.56538
                  CHANNELS 3 Zrotation Xrotation Yrotation
                  End Site
                  {
                    OFFSET 1.62519 -0.234802 1.16502
                  }
                }
              }
              JOINT lMid1
              {
                OFFSET 8.24714 1.18213 3.41376
                CHANNELS 3 Zrotation Xrotation Yrotation
                JOINT lMid2
                {
                  OFFSET 3.10165 -0.590103 1.0647
                  CHANNELS 3 Zrotation Xrotation Yrotation
                  End Site
                  {
                    OFFSET 2.48547 -0.328903 0.83742
                  }
                }
              }
              JOINT lRing1
              {
                OFFSET 8.82822 0.546677 1.51678
                CHANNELS 3 Zrotation Xrotation Yrotation
                JOINT lRing2
                {
                  OFFSET 2.60934 -0.819778 -0.0198488
                  CHANNELS 3 Zrotation Xrotation Yrotation
                  End Site
                  {
                    OFFSET 2.33842 -0.294052 0.168128
                  }
                }
              }
              JOINT lPinky1
              {
                OFFSET 8.27202 -0.0477905 -0.4584
                CHANNELS 3 Zrotation Xrotation Yrotation
                JOINT lPinky2
                {
                  OFFSET 1.82734 -0.647385 -0.700984
                  CHANNELS 3 Zrotation Xrotation Yrotation
                  End Site
                  {
                    OFFSET 1.69225 -0.51767 -0.607171
                  }
                }
              }
            }
          }
        }
      }
    }
  }
  JOINT rButtock
  {
    OFFSET -8.77824 4.35084 1.2192
    CHANNELS 3 Zrotation Xrotation Yrotation
    JOINT rThigh
    {
      OFFSET 0 -1.70687 -2.19456
      CHANNELS 3 Zrotation Xrotation Yrotation
      JOINT rShin
      {
        OFFSET 0 -36.8199 0.73152
        CHANNELS 3 Zrotation Xrotation Yrotation
        JOINT rFoot
        {
          OFFSET 0.73152 -45.1104 -5.12064
          CHANNELS 3 Zrotation Xrotation Yrotation
          End Site
          {
            OFFSET -1.1221 -3.69964 12.103
          }
        }
      }
    }
  }
  JOINT lButtock
  {
    OFFSET 8.77824 4.35084 1.2192
    CHANNELS 3 Zrotation Xrotation Yrotation
    JOINT lThigh
    {
      OFFSET 0 -1.70687 -2.19456
      CHANNELS 3 Zrotation Xrotation Yrotation
      JOINT lShin
      {
        OFFSET 0 -36.8199 0.73152
        CHANNELS 3 Zrotation Xrotation Yrotation
        JOINT lFoot
        {
          OFFSET -0.73152 -45.1104 -5.12064
          CHANNELS 3 Zrotation Xrotation Yrotation
          End Site
          {
            OFFSET 1.1221 -3.69964 12.103
          }
        }
      }
    }
  }
}
MOTION
Frames:	7
Frame Time:	0.00833333
110.089 86.9792 25.0222 5.2913 -1.2692 0.1278 -8.43992 2.65109 -0.855896 1.78679 -0.755343 -0.245572 -1.42388 1.52762 -0.563651 -3.4435 19.5042 -0.212394 -0.0 0.0 0.0 -0.0 0.0 0.0 1.95816e-13 -9.98862e-16 -1.23778e-14 74.3294 57.6337 8.45496 27.9802 -40.5167 -84.8531 -0.843162 -25.1334 -3.78055 -1.00725e-10 1.79951e-10 -5.04619e-11 -1.7166e-10 3.51636e-10 -9.40631e-11 -1.00723e-10 1.79941e-10 -5.04683e-11 7.73091 5.47488 0.417314 -1.00726e-10 1.79974e-10 -5.04676e-11 2.90554 0.965183 0.102902 -1.00723e-10 1.79948e-10 -5.04616e-11 10.2786 0.731801 0.0259123 -1.00733e-10 1.79951e-10 -5.0451e-11 2.22167 -0.733487 -0.20892 1.95804e-13 -1.0008e-15 -1.26512e-14 -76.6669 52.6544 2.14937 -26.3424 -45.5792 94.6595 0.0879093 8.53383 -1.20807 1.3716e-10 9.57874e-10 8.91828e-10 2.42712e-10 1.63397e-09 1.54144e-09 1.37157e-10 9.57874e-10 8.91832e-10 -7.73091 5.47488 -0.417314 1.3716e-10 9.57871e-10 8.91828e-10 -2.90554 0.965183 -0.102902 1.37156e-10 9.57871e-10 8.91825e-10 -10.2786 0.731801 -0.0259123 1.37168e-10 9.57898e-10 8.91819e-10 -2.22167 -0.733487 0.20892 -2.03217e-16 0.0 -3.88251e-19 -0.817342 -28.9772 7.54108 -0.197827 30.0911 0.294158 -1.65134 -1.76839 -9.66712 2.03217e-16 0.0 3.88251e-19 -6.07604 4.67807 2.72712 0.11762 25.0107 -0.423897 -0.745686 -1.73567 -11.1106
110.103 87.0603 25.7978 5.3845 -1.1348 0.2601 -7.51062 2.74373 -0.961017 1.73757 -0.811327 -0.261406 -1.44313 1.51258 -0.729954 -3.43673 19.6962 -0.541491 -0.0 0.0 0.0 -0.0 0.0 0.0 2.46795e-13 -9.14254e-15 -7.40473e-15 75.0964 57.331 7.42091 27.9556 -40.6419 -85.0798 -0.831428 -24.9739 -3.75311 -1.01784e-10 7.00644e-10 -1.67393e-10 -1.70946e-10 1.25946e-09 -2.96658e-10 -1.01781e-10 7.00642e-10 -1.67399e-10 7.73091 5.47488 0.417314 -1.01786e-10 7.00674e-10 -1.67399e-10 2.90554 0.965183 0.102902 -1.01783e-10 7.00642e-10 -1.67393e-10 10.2786 0.731801 0.0259123 -1.01793e-10 7.00645e-10 -1.67383e-10 2.22167 -0.733487 -0.20892 2.46803e-13 -9.14487e-15 -7.65321e-15 -76.8737 52.9195 2.0906 -26.427 -45.3966 94.2792 0.107835 9.32433 -1.32226 5.02532e-11 1.58191e-09 1.0534e-09 9.38379e-11 2.70714e-09 1.82076e-09 5.02504e-11 1.58191e-09 1.05341e-09 -7.73091 5.47488 -0.417314 5.02529e-11 1.58191e-09 1.0534e-09 -2.90554 0.965183 -0.102902 5.02488e-11 1.58191e-09 1.0534e-09 -10.2786 0.731801 -0.0259123 5.02629e-11 1.58194e-09 1.05339e-09 -2.22167 -0.733487 0.20892 -2.03217e-16 0.0 -3.88251e-19 -0.522643 -28.2759 6.70532 -0.200239 30.262 0.275006 -1.63855 -2.35778 -8.89264 2.03217e-16 0.0 3.88251e-19 -5.21193 3.4876 3.28613 0.149396 27.6651 -0.449571 -0.478785 0.122019 -11.6898
110.003 87.1626 26.7675 5.2218 -1.282 -0.0215 -6.66187 2.81927 -0.965522 1.73567 -0.801566 -0.247373 -1.47218 1.54651 -0.880354 -3.36717 19.8221 -0.849853 -0.0 0.0 0.0 -0.0 0.0 0.0 2.62165e-13 -8.62754e-15 -1.97977e-14 75.8359 57.0728 6.40289 27.9309 -40.7626 -85.3001 -0.814895 -24.7454 -3.71398 -5.21027e-11 3.85601e-10 -7.84613e-11 -8.63705e-11 7.08951e-10 -1.42604e-10 -5.20983e-11 3.85613e-10 -7.84667e-11 7.73091 5.47488 0.417314 -5.2105e-11 3.85635e-10 -7.84654e-11 2.90554 0.965183 0.102902 -5.21002e-11 3.85601e-10 -7.84617e-11 10.2786 0.731801 0.0259123 -5.21096e-11 3.85603e-10 -7.84514e-11 2.22167 -0.733487 -0.20892 2.62184e-13 -8.62867e-15 -2.0019e-14 -77.056 53.1832 2.01301 -26.5183 -45.198 93.8628 0.121068 9.81844 -1.3939 8.86545e-11 1.65837e-09 1.14254e-09 1.61514e-10 2.8337e-09 1.97422e-09 8.86525e-11 1.65836e-09 1.14254e-09 -7.73091 5.47488 -0.417314 8.8655e-11 1.65837e-09 1.14254e-09 -2.90554 0.965183 -0.102902 8.86498e-11 1.65837e-09 1.14253e-09 -10.2786 0.731801 -0.0259123 8.86634e-11 1.65839e-09 1.14253e-09 -2.22167 -0.733487 0.20892 -2.03217e-16 0.0 -3.88251e-19 -0.272478 -27.5221 5.85573 -0.201779 30.388 0.252971 -1.56502 -2.83296 -7.9019 2.03217e-16 0.0 3.88251e-19 -4.32946 2.3632 3.88829 0.182654 30.1711 -0.479134 -0.19299 1.82114 -11.9648
109.818 87.3518 27.7712 4.7809 -1.7483 -0.3466 -5.8397 2.90894 -0.878142 1.76266 -0.753668 -0.206316 -1.50218 1.61138 -1.02047 -3.26766 19.9013 -1.1443 -0.0 0.0 0.0 -0.0 0.0 0.0 2.52409e-13 -3.08137e-15 -4.25151e-14 76.5289 56.8499 5.41767 27.9076 -40.8751 -85.505 -0.796349 -24.4851 -3.6696 2.45485e-11 -3.95155e-10 1.20562e-10 4.27434e-11 -6.54875e-10 2.02295e-10 2.45542e-11 -3.95126e-10 1.20558e-10 7.73091 5.47488 0.417314 2.45459e-11 -3.95118e-10 1.20562e-10 2.90554 0.965183 0.102902 2.45532e-11 -3.95153e-10 1.20563e-10 10.2786 0.731801 0.0259123 2.45452e-11 -3.95152e-10 1.20573e-10 2.22167 -0.733487 -0.20892 2.52434e-13 -3.08028e-15 -4.27076e-14 -77.2276 53.4428 1.92106 -26.6153 -44.9795 93.4096 0.128906 10.1288 -1.43889 1.8832e-10 1.44609e-09 1.17665e-09 3.35064e-10 2.46119e-09 2.0322e-09 1.8832e-10 1.44608e-09 1.17665e-09 -7.73091 5.47488 -0.417314 1.88322e-10 1.4461e-09 1.17665e-09 -2.90554 0.965183 -0.102902 1.88315e-10 1.4461e-09 1.17665e-09 -10.2786 0.731801 -0.0259123 1.88327e-10 1.44611e-09 1.17665e-09 -2.22167 -0.733487 0.20892 -2.03217e-16 0.0 -3.88251e-19 -0.0512594 -26.6997 4.8865 -0.202607 30.4794 0.228454 -1.44907 -3.34764 -6.70402 2.03217e-16 0.0 3.88251e-19 -3.39221 1.22015 4.55034 0.219642 32.6783 -0.512984 0.100764 3.47842 -12.041
109.615 87.3907 28.6483 4.2619 -2.1288 -0.473 -5.06931 2.99309 -0.769338 1.80205 -0.678142 -0.159039 -1.54616 1.66827 -1.16083 -3.10094 19.9905 -1.44781 -0.0 0.0 0.0 -0.0 0.0 0.0 2.28066e-13 3.50843e-15 -6.23998e-14 77.1358 56.6556 4.53253 27.8854 -40.9799 -85.696 -0.780132 -24.2528 -3.63019 9.81145e-11 -1.18923e-09 3.21416e-10 1.66318e-10 -2.04338e-09 5.50629e-10 9.81212e-11 -1.18918e-09 3.21413e-10 7.73091 5.47488 0.417314 9.81116e-11 -1.18919e-09 3.2142e-10 2.90554 0.965183 0.102902 9.81214e-11 -1.18922e-09 3.21418e-10 10.2786 0.731801 0.0259123 9.81147e-11 -1.18922e-09 3.21428e-10 2.22167 -0.733487 -0.20892 2.28092e-13 3.51169e-15 -6.25667e-14 -77.3859 53.686 1.83292 -26.7016 -44.7748 92.9939 0.131703 10.2655 -1.45863 2.93964e-10 1.11876e-09 1.15497e-09 5.18445e-10 1.8919e-09 1.99379e-09 2.93966e-10 1.11874e-09 1.15498e-09 -7.73091 5.47488 -0.417314 2.93968e-10 1.11877e-09 1.15498e-09 -2.90554 0.965183 -0.102902 2.93959e-10 1.11877e-09 1.15498e-09 -10.2786 0.731801 -0.0259123 2.93969e-10 1.11878e-09 1.15498e-09 -2.22167 -0.733487 0.20892 -2.03217e-16 0.0 -3.88251e-19 0.193263 -25.9058 3.97777 -0.203531 30.5938 0.204534 -1.31731 -3.8926 -5.51971 2.03217e-16 0.0 3.88251e-19 -2.44841 0.0488041 5.20645 0.259522 35.1311 -0.550828 0.401311 5.15735 -12.0424
109.433 87.3548 29.4602 4.027 -2.4629 -0.5551 -4.37533 3.05208 -0.709594 1.83748 -0.585499 -0.126347 -1.61747 1.67826 -1.31196 -2.82828 20.1462 -1.7839 -0.0 0.0 0.0 -0.0 0.0 0.0 1.99676e-13 7.15431e-15 -6.62947e-14 77.6175 56.4849 3.81442 27.8642 -41.0772 -85.8746 -0.770238 -24.1083 -3.60579 1.3854e-10 -1.54422e-09 4.15842e-10 2.34277e-10 -2.6679e-09 7.14989e-10 1.38548e-10 -1.54417e-09 4.15838e-10 7.73091 5.47488 0.417314 1.38537e-10 -1.54418e-09 4.15848e-10 2.90554 0.965183 0.102902 1.38549e-10 -1.54421e-09 4.15845e-10 10.2786 0.731801 0.0259123 1.38542e-10 -1.54421e-09 4.15854e-10 2.22167 -0.733487 -0.20892 1.99696e-13 7.15858e-15 -6.64438e-14 -77.5287 53.9005 1.76728 -26.7637 -44.6196 92.6861 0.130326 10.2388 -1.45464 3.50301e-10 8.50031e-10 1.07675e-09 6.15613e-10 1.42812e-09 1.85808e-09 3.50303e-10 8.50015e-10 1.07676e-09 -7.73091 5.47488 -0.417314 3.50305e-10 8.50044e-10 1.07676e-09 -2.90554 0.965183 -0.102902 3.50295e-10 8.50045e-10 1.07676e-09 -10.2786 0.731801 -0.0259123 3.50304e-10 8.50048e-10 1.07676e-09 -2.22167 -0.733487 0.20892 -2.03217e-16 0.0 -3.88251e-19 0.495533 -25.2431 3.30147 -0.205281 30.789 0.184252 -1.20513 -4.45858 -4.57009 2.03217e-16 0.0 3.88251e-19 -1.55119 -1.16077 5.79102 0.301173 37.4736 -0.592157 0.722325 6.91829 -12.0952
109.251 87.1755 30.1597 3.7895 -2.8444 -0.5397 -3.75422 3.06863 -0.729355 1.8653 -0.465321 -0.116133 -1.74196 1.61401 -1.48216 -2.37823 20.4264 -2.17527 -0.0 0.0 0.0 -0.0 0.0 0.0 1.6165e-13 7.21987e-15 -3.98225e-14 77.9484 56.354 3.29725 27.8437 -41.1686 -86.043 -0.764636 -24.0211 -3.59123 1.30214e-10 -1.22631e-09 3.47907e-10 2.20393e-10 -2.1231e-09 5.98872e-10 1.30222e-10 -1.22627e-09 3.47902e-10 7.73091 5.47488 0.417314 1.30212e-10 -1.22628e-09 3.47914e-10 2.90554 0.965183 0.102902 1.30223e-10 -1.22631e-09 3.47911e-10 10.2786 0.731801 0.0259123 1.30215e-10 -1.2263e-09 3.47919e-10 2.22167 -0.733487 -0.20892 1.61659e-13 7.22339e-15 -3.99623e-14 -77.6558 54.0629 1.7442 -26.7975 -44.5328 92.5155 0.121896 9.93216 -1.41006 3.39499e-10 6.24197e-10 8.92467e-10 5.94951e-10 1.04599e-09 1.53964e-09 3.39501e-10 6.24185e-10 8.92473e-10 -7.73091 5.47488 -0.417314 3.39503e-10 6.24209e-10 8.92472e-10 -2.90554 0.965183 -0.102902 3.39493e-10 6.24211e-10 8.92471e-10 -10.2786 0.731801 -0.0259123 3.39501e-10 6.24211e-10 8.92472e-10 -2.22167 -0.733487 0.20892 -2.03217e-16 0.0 -3.88251e-19 0.88245 -24.8022 2.94287 -0.208924 31.1412 0.1677 -1.13338 -5.05659 -3.93733 2.03217e-16 0.0 3.88251e-19 -0.697351 -2.44434 6.29851 0.344213 39.694 -0.638261 1.1442 9.09473 -12.2994
